<?xml version="1.0" encoding="utf-8"?>
<!-- Generator: Adobe Illustrator 25.2.0, SVG Export Plug-In . SVG Version: 6.00 Build 0)  -->
<svg width="150" height="150" version="1.1" id="Ebene_1" xmlns="http://www.w3.org/2000/svg" xmlns:xlink="http://www.w3.org/1999/xlink" x="0px" y="0px"
	 viewBox="0 0 108 108.8" style="enable-background:new 0 0 108 108.8;" xml:space="preserve">
<style type="text/css">
	.st0{fill-rule:evenodd;clip-rule:evenodd;fill:#323B48;}
	.st1{filter:url(#Adobe_OpacityMaskFilter);}
	.st2{fill-rule:evenodd;clip-rule:evenodd;fill:#FFFFFF;}
	.st3{mask:url(#mask-2_1_);}
	.st4{fill-rule:evenodd;clip-rule:evenodd;fill:#587ABC;}
	.st5{fill-rule:evenodd;clip-rule:evenodd;fill:#FFFFFE;}
	.st6{fill-rule:evenodd;clip-rule:evenodd;fill:#E46B6A;}
	.st7{fill-rule:evenodd;clip-rule:evenodd;fill:#E05A5B;}
	.st8{fill-rule:evenodd;clip-rule:evenodd;fill:#BDB258;}
	.st9{fill-rule:evenodd;clip-rule:evenodd;fill:#C8BD62;}
	.st10{fill-rule:evenodd;clip-rule:evenodd;fill:#C5BB67;}
	.st11{fill-rule:evenodd;clip-rule:evenodd;fill:#E5726D;}
	.st12{fill-rule:evenodd;clip-rule:evenodd;fill:#DF4F4B;}
	.st13{fill-rule:evenodd;clip-rule:evenodd;fill:#EE9F79;}
	.st14{fill-rule:evenodd;clip-rule:evenodd;fill:#150E18;}
	.st15{fill-rule:evenodd;clip-rule:evenodd;fill:#302C3F;}
	.st16{fill-rule:evenodd;clip-rule:evenodd;fill:#F0AC8A;}
	.st17{fill-rule:evenodd;clip-rule:evenodd;fill:#F0AA87;}
</style>
<desc>Created with Sketch.</desc>
<g id="Personal-1-mixed">
	<g id="hero" transform="translate(-811.000000, -274.000000)">
		<g transform="translate(290.000000, 0.000000)">
			<g id="bio" transform="translate(470.000000, 274.000000)">
				<g id="avatar" transform="translate(51.000000, 0.000000)">
					<g id="Oval">
						<circle id="path-1_1_" class="st0" cx="54.1" cy="54.3" r="54"/>
					</g>
					<defs>
						<filter id="Adobe_OpacityMaskFilter" filterUnits="userSpaceOnUse" x="20" y="17" width="69" height="91">
							<feColorMatrix  type="matrix" values="1 0 0 0 0  0 1 0 0 0  0 0 1 0 0  0 0 0 1 0"/>
						</filter>
					</defs>
					<mask maskUnits="userSpaceOnUse" x="20" y="17" width="69" height="91" id="mask-2_1_">
						<g class="st1">
							<circle id="path-1_2_" class="st2" cx="54" cy="54" r="54"/>
						</g>
					</mask>
					<g class="st3">
						<g transform="translate(20.000000, 17.000000)">
							<path id="Fill-31" class="st4" d="M55.6,80.8C43.9,75.9,40,69.8,41,61H28c1,8.8-2.9,14.9-14.7,19.8C1.6,85.7,0,91,0,91h69
								C69,91,67.4,85.7,55.6,80.8"/>
							<path id="Fill-32" class="st5" d="M35,83c4.9,0,9.2-3.2,11-7.9c-0.4-0.3-0.7-0.7-1-1.1h0c-1.4,4.4-5.3,7.6-10,7.6
								c-4.7,0-8.6-3.2-10-7.6l0,0c-0.3,0.4-0.6,0.7-1,1.1C25.8,79.8,30.1,83,35,83"/>
							<path id="Fill-33" class="st6" d="M45,73.5c-3.1-3.5-4.1-7.6-3.6-12.5H28.6c0.6,4.9-0.4,9-3.6,12.5c1.4,4.3,5.3,7.5,10,7.5
								C39.7,81,43.6,77.9,45,73.5"/>
							<path id="Fill-34" class="st7" d="M45,73.6c-3.1-3.5-4.1-7.6-3.6-12.6H28.6c0.6,5-0.4,9.1-3.6,12.6l0,0.1
								c2.7,0.8,5.8,1.3,9.6,1.3C38.8,75,42.2,74.5,45,73.6"/>
							<path id="Fill-35" class="st8" d="M10.8,51c0,0-1.1-14.3,12-19.3S43.6,22.9,44.2,13c0,0,4.1,8.6,0,14.5c0,0,4.9,0.3,5.7-3
								c0,0,1.9,5.4,1.1,7.3c0,0,2.5-0.2,2.7-3.7l1.6,18.8l1.1,4.3l4-13.3c0,0,10.5-24.7-11.7-31.2c0,0-18.6-16.1-38,2.4
								c0,0-15.7,12.4-5.2,32L10.8,51"/>
							<path id="Fill-36" class="st9" d="M11.1,8.8c0,0-6.1,4.8-8.1,13.2c2-3.3,8.9-13.6,19.7-16.8C35.7,1.4,49,6.4,49,6.4
								S30.4-9.5,11.1,8.8"/>
							<path id="Fill-37" class="st10" d="M62.8,28L62.8,28c0.8-7.5-1-17.3-13.8-21C49,7,63.2,15.8,62.8,28"/>
							<path id="Fill-38" class="st11" d="M15.7,43.6c2.4,4.6,1.4,9.9-2.3,11.8C9.7,57.2,4.8,55,2.3,50.4c-2.4-4.6-1.4-9.9,2.3-11.8
								C8.3,36.8,13.2,39,15.7,43.6"/>
							<path id="Fill-39" class="st12" d="M14,52c0-0.2-0.1-0.3-0.1-0.5c0,0.1,0,0.2,0.1,0.3c0-0.9-0.2-1.7-0.4-2.3
								C11.6,41.8,4,41,4,41c3.8,2.2,6.2,4.6,7.7,6.7c-2.7-1.1-6.9,1.2-6.9,1.2c5-1.3,7.3-0.2,8.3,1C13.8,51.2,14,52,14,52"/>
							<path id="Fill-40" class="st8" d="M12.3,54c0,0-5.7-16,0.8-25L17,40.8L12.3,54"/>
							<path id="Fill-41" class="st11" d="M52.3,43.6c-2.4,4.6-1.4,9.9,2.3,11.8c3.7,1.9,8.6-0.3,11.1-4.9c2.4-4.6,1.4-9.9-2.3-11.8
								C59.7,36.8,54.8,39,52.3,43.6"/>
							<path id="Fill-42" class="st12" d="M54,52c0-0.2,0.1-0.3,0.1-0.5c0,0.1,0,0.2-0.1,0.3c0-0.9,0.2-1.7,0.4-2.3
								c2-7.7,9.6-8.5,9.6-8.5c-3.8,2.2-6.2,4.6-7.7,6.7c2.7-1.1,6.9,1.2,6.9,1.2c-5-1.3-7.3-0.2-8.3,1C54.2,51.2,54,52,54,52"/>
							<path id="Fill-43" class="st8" d="M54.8,56c0,0,7-4.3,2.9-24L49,34.8L54.8,56"/>
							<path id="Fill-44" class="st13" d="M55.4,47.1l-1.6-19c-0.3,3.6-2.7,3.8-2.7,3.8c0.8-1.9-1.1-7.4-1.1-7.4
								c-0.8,3.3-5.7,3.1-5.7,3.1c4.1-5.9,0-14.6,0-14.6C43.6,23,36,26.9,22.9,31.9C13.2,35.7,11.3,44.7,11,49.1
								C11.4,61,14.9,72,33.6,72c16.3,0,21-7.8,22.2-17.2C56.2,52.2,56,49.6,55.4,47.1"/>
							<g transform="matrix(1 0 0 1 1.907349e-06 -3.814697e-06)" style="enable-background:new    ;">
								
									<image style="overflow:visible;" width="38" height="12" id="Image-46" xlink:href="FD7ECC1D.png"  transform="matrix(0.3158 0 0 0.3158 27 57.1052)">
								</image>
							</g>
							<path id="Fill-47" class="st14" d="M46,42c0,1.7-0.7,3-1.5,3c-0.8,0-1.5-1.3-1.5-3c0-1.7,0.7-3,1.5-3C45.3,39,46,40.3,46,42"
								/>
							<path id="Fill-48" class="st14" d="M22,42c0,1.7,0.7,3,1.5,3c0.8,0,1.5-1.3,1.5-3s-0.7-3-1.5-3C22.7,39,22,40.3,22,42"/>
							<path id="Fill-49" class="st15" d="M18,38c0,0,8-2.5,12-2.3c0,0-0.7-4.4-5.5-3.6C18.9,33,18,38,18,38"/>
							<path id="Fill-50" class="st15" d="M50,36c0,0-8.1-1.6-12-0.9c0,0,0.1-4.3,4.9-4.1C48.5,31.2,50,36,50,36"/>
							<path id="Fill-51" class="st12" d="M22.6,52c-0.1,0-0.2,0-0.3-0.1c-0.3-0.1-0.4-0.5-0.3-0.8l1.8-3.8c0.1-0.3,0.5-0.4,0.8-0.3
								c0.3,0.1,0.4,0.5,0.3,0.8l-1.8,3.8C23,51.9,22.8,52,22.6,52"/>
							<path id="Fill-52" class="st12" d="M18.6,52c-0.1,0-0.2,0-0.3-0.1c-0.3-0.1-0.4-0.5-0.3-0.8l1.8-3.8c0.1-0.3,0.5-0.4,0.8-0.3
								c0.3,0.1,0.4,0.5,0.3,0.8l-1.8,3.8C19,51.9,18.8,52,18.6,52"/>
							<path id="Fill-53" class="st12" d="M46.4,52c-0.2,0-0.4-0.1-0.5-0.3l-1.8-3.8c-0.1-0.3,0-0.6,0.3-0.8c0.3-0.1,0.6,0,0.8,0.3
								l1.8,3.8c0.1,0.3,0,0.6-0.3,0.8C46.6,52,46.5,52,46.4,52"/>
							<path id="Fill-54" class="st12" d="M49.4,52c-0.2,0-0.4-0.1-0.5-0.3l-1.8-3.8c-0.1-0.3,0-0.6,0.3-0.8c0.3-0.1,0.6,0,0.8,0.3
								l1.8,3.8c0.1,0.3,0,0.6-0.3,0.8C49.6,52,49.5,52,49.4,52"/>
							<path id="Fill-55" class="st12" d="M37,47.9c0,1.7-1.1,3.1-2.5,3.1c-1.4,0-2.5-1.4-2.5-3.1c0-1.7,1.1-3.9,2.5-3.9
								C35.9,44,37,46.2,37,47.9"/>
							<path id="Fill-56" class="st12" d="M35.3,56c-6.1,0-9.9-2.7-10.1-2.9c-0.3-0.2-0.3-0.6-0.1-0.9c0.2-0.3,0.6-0.3,0.9-0.1
								c0.1,0,5.7,4.1,14.1,2c0.4-0.1,0.7,0.1,0.8,0.4c0.1,0.3-0.1,0.7-0.5,0.8C38.6,55.8,36.9,56,35.3,56"/>
							<polyline id="Fill-57" class="st16" points="44.5,13.5 44.5,13.5 44.5,13.5 44.5,13.5 							"/>
							<path id="Fill-58" class="st17" d="M34,67.4c-11.7,0-17.8-3.8-21-9.4c2.1,8,7.5,14,21,14c13.7,0,19.1-5.8,21-13.6
								C51.9,63.8,45.8,67.4,34,67.4"/>
						</g>
					</g>
				</g>
			</g>
		</g>
	</g>
</g>
</svg>
