<?xml version="1.0" encoding="utf-8"?>
<!-- Generator: Adobe Illustrator 25.2.0, SVG Export Plug-In . SVG Version: 6.00 Build 0)  -->
<svg version="1.1" id="Ebene_1" xmlns="http://www.w3.org/2000/svg" xmlns:xlink="http://www.w3.org/1999/xlink" x="0px" y="0px"
	 viewBox="0 0 107 33" width="107px" height="33px" style="enable-background:new 0 0 107 33;" xml:space="preserve">
<style type="text/css">
	.st0{fill:#FF4C60;}
	.st1{fill:#FFFFFF;}
</style>
<desc>Created with Sketch.</desc>
<g>
	<g id="Symbols">
		<g id="header" transform="translate(-42.000000, -61.000000)">
			<g id="Bolby.">
				<g transform="translate(42.448000, 61.440000)">
					<path id="_x2E_" class="st0" d="M105.9,25.9c0.2,0,0.3-0.1,0.4-0.2s0.2-0.3,0.2-0.5l0,0v-3.5c0-0.2-0.1-0.4-0.2-0.5
						S106,21,105.9,21l0,0h-3.2c-0.2,0-0.3,0.1-0.5,0.2c-0.1,0.1-0.2,0.3-0.2,0.5l0,0v3.5c0,0.2,0.1,0.4,0.2,0.5s0.3,0.2,0.5,0.2
						l0,0H105.9z"/>
				</g>
			</g>
		</g>
	</g>
	<g>
		<path class="st1" d="M1,26.3c-0.2,0-0.3-0.1-0.4-0.2s-0.2-0.3-0.2-0.4V9.4c0-0.2,0.1-0.3,0.2-0.5c0,0,0.2-0.1,0.4-0.1h11.4
			c0.2,0,0.3,0.1,0.4,0.2C13,9.1,13,9.2,13,9.4v2.4c0,0.2-0.1,0.3-0.2,0.5c-0.1,0.1-0.3,0.2-0.4,0.2H4.6v3.4h7.3
			c0.2,0,0.3,0.1,0.4,0.2c0.1,0.1,0.2,0.3,0.2,0.5v2.2c0,0.2-0.1,0.3-0.2,0.4c-0.1,0.1-0.3,0.2-0.4,0.2H4.6v3.5h8
			c0.2,0,0.3,0.1,0.4,0.2c0.1,0.1,0.2,0.3,0.2,0.5V26c0,0.2-0.1,0.3-0.2,0.4c-0.1,0.1-0.3,0.2-0.4,0.2H1V26.3z"/>
		<path class="st1" d="M16.4,26.3c-0.2,0-0.3-0.1-0.4-0.2s-0.2-0.3-0.2-0.4V9.2c0-0.2,0.1-0.3,0.2-0.5c0.1-0.1,0.3-0.2,0.4-0.2h2.9
			c0.2,0,0.3,0.1,0.4,0.2c0.1,0.1,0.2,0.3,0.2,0.5v16.5c0,0.2-0.1,0.3-0.2,0.4s-0.3,0.2-0.4,0.2C19.3,26.3,16.4,26.3,16.4,26.3z"/>
		<path class="st1" d="M23.3,11.4c-0.2,0-0.3-0.1-0.4-0.2c-0.1-0.1-0.2-0.3-0.2-0.5V8.5c0-0.2,0.1-0.3,0.2-0.4
			C23,8,23.2,7.9,23.3,7.9h2.9c0.2,0,0.3,0.1,0.4,0.2c0.1,0.1,0.2,0.3,0.2,0.4v2.3c0,0.2-0.1,0.3-0.2,0.5c-0.1,0.1-0.3,0.2-0.4,0.2
			h-2.9V11.4z M23.4,26.3c-0.2,0-0.3-0.1-0.4-0.2s-0.2-0.3-0.2-0.4V13.9c0-0.2,0.1-0.3,0.2-0.5c0.1-0.1,0.3-0.2,0.4-0.2h2.9
			c0.2,0,0.3,0.1,0.4,0.2c0.1,0.1,0.2,0.3,0.2,0.5v11.8c0,0.2-0.1,0.3-0.2,0.4s-0.3,0.2-0.4,0.2C26.3,26.3,23.4,26.3,23.4,26.3z"/>
		<path class="st1" d="M30.6,26.3c-0.2,0-0.3-0.1-0.4-0.2C30.1,26,30,25.9,30,25.7V9.4c0-0.2,0.1-0.3,0.2-0.5
			c0.1-0.1,0.3-0.2,0.4-0.2h6.9c1.4,0,2.5,0.2,3.5,0.6s1.8,1.1,2.4,1.9c0.6,0.9,0.8,1.9,0.8,3.2s-0.3,2.3-0.8,3.2
			c-0.6,0.8-1.3,1.5-2.4,1.9c-1,0.4-2.2,0.6-3.5,0.6h-2.9v5.5c0,0.2-0.1,0.3-0.2,0.4c-0.1,0.1-0.3,0.2-0.5,0.2L30.6,26.3L30.6,26.3z
			 M34.5,16.8h2.9c0.7,0,1.3-0.2,1.7-0.6c0.4-0.4,0.6-0.9,0.6-1.7c0-0.6-0.2-1.2-0.5-1.6c-0.4-0.4-0.9-0.7-1.8-0.7h-2.9V16.8z"/>
		<path class="st1" d="M52.2,26.6c-1.4,0-2.5-0.2-3.5-0.7c-0.9-0.5-1.7-1.1-2.2-1.9s-0.8-1.8-0.8-3c0-0.3,0-0.7,0-1.1s0-0.8,0-1.1
			c0.1-1.2,0.4-2.2,0.9-3c0.5-0.8,1.3-1.5,2.2-1.9c0.9-0.5,2.1-0.7,3.4-0.7c1.3,0,2.5,0.2,3.4,0.7s1.7,1.1,2.2,1.9
			c0.5,0.8,0.8,1.8,0.9,3c0,0.3,0,0.7,0,1.1s0,0.8,0,1.1c-0.1,1.2-0.3,2.2-0.8,3s-1.2,1.5-2.2,1.9C54.8,26.4,53.6,26.6,52.2,26.6z
			 M52.2,23.5c0.7,0,1.3-0.2,1.6-0.7s0.5-1.1,0.6-2c0-0.3,0-0.6,0-1s0-0.8,0-1c0-0.9-0.2-1.6-0.6-2c-0.3-0.5-0.9-0.7-1.6-0.7
			c-0.7,0-1.2,0.2-1.6,0.7c-0.4,0.5-0.5,1.1-0.6,2c0,0.3,0,0.6,0,1s0,0.8,0,1c0,0.9,0.2,1.6,0.6,2C51,23.3,51.5,23.5,52.2,23.5z"/>
		<path class="st1" d="M61.8,26.3c-0.2,0-0.3-0.1-0.4-0.2c-0.1-0.1-0.2-0.3-0.2-0.4V13.9c0-0.2,0.1-0.3,0.2-0.5
			c0.1-0.1,0.3-0.2,0.4-0.2h2.8c0.2,0,0.3,0.1,0.5,0.2c0.1,0.1,0.2,0.3,0.2,0.5v1c0.4-0.5,1-1,1.6-1.3c0.7-0.4,1.5-0.5,2.4-0.5
			s1.8,0.2,2.5,0.7c0.7,0.4,1.3,1.1,1.7,1.9c0.4,0.8,0.6,1.9,0.6,3.1v7c0,0.2-0.1,0.3-0.2,0.4s-0.3,0.2-0.4,0.2h-3.1
			c-0.2,0-0.3-0.1-0.4-0.2s-0.2-0.3-0.2-0.4V19c0-0.8-0.2-1.4-0.6-1.8s-0.9-0.6-1.6-0.6s-1.2,0.2-1.6,0.6s-0.6,1-0.6,1.8v6.8
			c0,0.2-0.1,0.3-0.2,0.4s-0.3,0.2-0.4,0.2h-3V26.3z"/>
		<path class="st1" d="M83.2,31.8c-1.3,0-2.3-0.2-3.1-0.5c-0.8-0.3-1.5-0.7-2-1.2s-0.8-0.9-1-1.4s-0.3-0.8-0.3-1.1
			c0-0.2,0-0.3,0.2-0.5c0.1-0.1,0.3-0.2,0.5-0.2h3.1c0.2,0,0.3,0,0.4,0.1s0.2,0.2,0.2,0.4c0.1,0.2,0.2,0.4,0.3,0.6
			c0.1,0.2,0.3,0.4,0.6,0.5c0.3,0.1,0.6,0.2,1,0.2c0.5,0,0.9-0.1,1.2-0.2c0.3-0.2,0.6-0.4,0.7-0.8c0.2-0.4,0.2-0.8,0.2-1.4v-1.7
			c-0.4,0.4-0.9,0.8-1.4,1c-0.6,0.3-1.3,0.4-2.1,0.4c-0.8,0-1.6-0.1-2.2-0.4s-1.2-0.6-1.6-1.1s-0.8-1.1-1-1.8
			c-0.2-0.7-0.4-1.5-0.4-2.5c0-0.4,0-0.9,0-1.3c0-0.9,0.2-1.7,0.4-2.4c0.2-0.7,0.6-1.3,1-1.9c0.4-0.5,1-0.9,1.6-1.2s1.4-0.4,2.2-0.4
			c0.9,0,1.6,0.2,2.3,0.5c0.6,0.3,1.1,0.8,1.6,1.3v-0.9c0-0.2,0.1-0.3,0.2-0.4c0.1-0.1,0.3-0.2,0.4-0.2H89c0.2,0,0.3,0.1,0.5,0.2
			s0.2,0.3,0.2,0.4v12c0,1.3-0.2,2.3-0.7,3.2c-0.5,0.9-1.2,1.5-2.2,2C85.7,31.6,84.5,31.8,83.2,31.8z M83,22.8
			c0.5,0,0.9-0.1,1.3-0.4s0.6-0.5,0.7-0.9c0.2-0.4,0.2-0.8,0.3-1.2c0-0.2,0-0.4,0-0.8c0-0.3,0-0.6,0-0.8c0-0.4-0.1-0.8-0.3-1.2
			c-0.2-0.4-0.4-0.7-0.7-0.9c-0.3-0.2-0.8-0.3-1.3-0.3s-1,0.1-1.3,0.4c-0.3,0.2-0.5,0.6-0.7,1c-0.1,0.4-0.2,0.8-0.3,1.3
			c0,0.4,0,0.7,0,1.1c0,0.5,0.1,0.9,0.3,1.3c0.1,0.4,0.4,0.7,0.7,1C82,22.7,82.5,22.8,83,22.8z"/>
		<path class="st1" d="M93.1,26.3c-0.2,0-0.3-0.1-0.4-0.2s-0.2-0.3-0.2-0.4V13.9c0-0.2,0.1-0.3,0.2-0.4c0.1-0.1,0.3-0.2,0.4-0.2h2.8
			c0.2,0,0.3,0.1,0.5,0.2s0.2,0.3,0.2,0.4v1c0.4-0.5,0.9-0.9,1.6-1.2c0.6-0.3,1.3-0.4,2.1-0.4h1.1c0.2,0,0.3,0.1,0.4,0.2
			c0.1,0.1,0.2,0.3,0.2,0.5v2.6c0,0.2-0.1,0.3-0.2,0.4s-0.3,0.2-0.4,0.2H99c-0.7,0-1.2,0.2-1.6,0.6s-0.6,0.9-0.6,1.6v6.4
			c0,0.2-0.1,0.3-0.2,0.4s-0.3,0.2-0.5,0.2h-3V26.3z"/>
	</g>
</g>
</svg>
