<?xml version="1.0" encoding="utf-8"?>
<!-- Generator: Adobe Illustrator 25.2.3, SVG Export Plug-In . SVG Version: 6.00 Build 0)  -->
<svg version="1.1" id="Ebene_1" xmlns="http://www.w3.org/2000/svg" xmlns:xlink="http://www.w3.org/1999/xlink" x="0px" y="0px"
	 viewBox="0 0 328.19 319.53" style="enable-background:new 0 0 328.19 319.53;" xml:space="preserve">
<g>
	<path d="M240.81,186.39c5.71,5.5,10.34,9.82,14.8,14.3c4.54,4.57,4.64,7.95,0.19,12.45c-9.84,9.94-19.77,19.79-29.75,29.59
		c-3.94,3.87-8.96,2.89-11.53-2.04c-0.51-0.98-0.87-2.05-1.8-4.29c-9,9.23-17.38,17.94-25.88,26.53
		c-16.63,16.8-33.32,33.55-50.01,50.3c-5.03,5.04-7.91,5.02-13-0.05C86.92,276.35,50.04,239.53,13.17,202.7
		c-4.73-4.73-4.75-7.99-0.01-12.73c24.75-24.72,49.52-49.42,74.28-74.13c0.79-0.78,1.5-1.64,2.45-2.7
		c-1.43-0.57-2.49-0.95-3.52-1.41c-5.54-2.46-6.95-7.74-2.71-12.09c9.88-10.14,19.97-20.08,30.12-29.95
		c3.66-3.56,7.5-3.26,11.37,0.6c6,5.99,11.87,12.12,18.14,18.55c10.64-10.72,20.8-21.01,31.02-31.25
		c14.59-14.62,29.2-29.22,43.82-43.8c10.66-10.63,23.16-10.66,33.84-0.01c21.58,21.53,43.14,43.08,64.67,64.66
		c10.62,10.64,10.59,23.21-0.06,33.88c-22.83,22.86-45.7,45.7-68.61,68.49C245.98,182.79,243.53,184.29,240.81,186.39z
		 M158.28,276.06c0.59-0.26,0.97-0.32,1.19-0.54c16.17-16.09,32.37-32.15,48.4-48.38c0.95-0.96,1.14-3.35,0.75-4.83
		c-1.71-6.43-3.9-12.72-5.65-19.14c-0.98-3.6-3.02-5.52-6.61-6.58c-14.51-4.29-28.93-8.94-43.45-13.2
		c-5.49-1.61-8.7-4.71-10.31-10.29c-4.22-14.54-8.92-28.94-13.26-43.44c-1.06-3.54-2.84-5.66-6.56-6.62
		c-5.79-1.49-11.52-3.29-17.14-5.36c-3.16-1.16-5.1-0.5-7.3,1.95c-3.78,4.21-7.99,8.03-11.99,12.04
		c-12.09,12.12-24.16,24.26-35.49,35.63C86.79,203.67,122.58,239.9,158.28,276.06z M245.97,206.97
		c-42.19-42.23-84.64-84.72-126.89-127.02c-7.67,7.7-15.57,15.61-23.71,23.77c10.27,3.2,20.53,6.56,30.89,9.55
		c6.72,1.94,10.77,5.99,12.75,12.68c4.2,14.19,8.75,28.27,12.98,42.45c0.9,3.03,2.34,4.63,5.48,5.55
		c13.88,4.06,27.61,8.61,41.51,12.6c7.45,2.14,11.94,6.42,13.99,13.97c2.77,10.22,6.13,20.27,9.15,30.14
		C230.29,222.55,238.27,214.63,245.97,206.97z M22.1,196.06c36.1,36.18,72.14,72.3,107.85,108.09c6.92-6.83,13.82-13.63,19.03-18.76
		c-35.62-36.5-71.23-73-106.57-109.21C35.3,183.14,28.66,189.64,22.1,196.06z M190.59,133.72c12.84-12.82,25.85-25.83,38.39-38.35
		c-12.63-12.74-25.49-25.71-37.93-38.26c-12.85,12.82-25.85,25.8-38.45,38.37C165.2,108.16,178.06,121.11,190.59,133.72z
		 M273.57,139.53c-11.97-12-24.04-24.1-35.53-35.62c-12.91,12.81-25.95,25.73-38.72,38.4c11.85,11.81,23.92,23.85,35.81,35.71
		C247.74,165.39,260.63,152.48,273.57,139.53z M237.61,86.76c11.96-11.82,24.12-23.84,36.53-36.12
		c-10.53-10.5-21.03-21.17-31.79-31.58c-3.96-3.83-10.24-4.08-14.17-0.32c-10.06,9.64-19.75,19.66-29.48,29.42
		C211.89,61.24,224.85,74.1,237.61,86.76z M245.29,95.7c11.87,12.3,23.79,24.66,36.14,37.46c8.87-9.04,16.51-16.9,24.25-24.67
		c11.68-11.73,11.68-14.5-0.08-26.41c-7.8-7.89-15.53-15.86-22.84-23.34C269.93,71.39,257.77,83.39,245.29,95.7z"/>
</g>
</svg>
