<?xml version="1.0" encoding="utf-8"?>
<!-- Generator: Adobe Illustrator 25.2.0, SVG Export Plug-In . SVG Version: 6.00 Build 0)  -->
<svg version="1.1" id="Ebene_1" xmlns="http://www.w3.org/2000/svg" xmlns:xlink="http://www.w3.org/1999/xlink" x="0px" y="0px"
	 viewBox="0 0 133.7 40.8" height="41" width="135" style="enable-background:new 0 0 133.7 40.8;" xml:space="preserve">
<style type="text/css">
	.st0{fill:#FF4C60;}
	.st1{fill:#FFFFFF;}
</style>
<desc>Created with Sketch.</desc>
<g>
	<g id="Symbols">
		<g id="header" transform="translate(-42.000000, -61.000000)">
			<g id="Bolby.">
				<g transform="translate(42.448000, 61.440000)">
					<path id="_x2E_" class="st0" d="M132.5,32c0.3,0,0.4-0.1,0.5-0.3c0.1-0.1,0.3-0.4,0.3-0.7l0,0v-4.6c0-0.3-0.1-0.5-0.3-0.7
						c-0.1-0.1-0.4-0.3-0.5-0.3l0,0h-4c-0.3,0-0.4,0.1-0.6,0.3c-0.1,0.1-0.3,0.4-0.3,0.7l0,0v4.6c0,0.3,0.1,0.5,0.3,0.7
						s0.4,0.3,0.6,0.3l0,0H132.5z"/>
				</g>
			</g>
		</g>
	</g>
	<g>
		<path class="st1" d="M1.2,32.4c-0.3,0-0.4-0.1-0.5-0.3c-0.1-0.1-0.3-0.4-0.3-0.5V10.3c0-0.3,0.1-0.4,0.3-0.7c0,0,0.3-0.1,0.5-0.1
			h14.3c0.3,0,0.4,0.1,0.5,0.3c0.3,0.1,0.3,0.3,0.3,0.5v3.1c0,0.3-0.1,0.4-0.3,0.7c-0.1,0.1-0.4,0.3-0.5,0.3H5.7v4.4h9.1
			c0.3,0,0.4,0.1,0.5,0.3c0.1,0.1,0.3,0.4,0.3,0.7v2.9c0,0.3-0.1,0.4-0.3,0.5c-0.1,0.1-0.4,0.3-0.5,0.3H5.7V28h10
			c0.3,0,0.4,0.1,0.5,0.3c0.1,0.1,0.3,0.4,0.3,0.7V32c0,0.3-0.1,0.4-0.3,0.5s-0.4,0.3-0.5,0.3H1.2V32.4z"/>
		<path class="st1" d="M20.4,32.4c-0.3,0-0.4-0.1-0.5-0.3c-0.1-0.1-0.3-0.4-0.3-0.5V10.1c0-0.3,0.1-0.4,0.3-0.7
			c0.1-0.1,0.4-0.3,0.5-0.3h3.6c0.3,0,0.4,0.1,0.5,0.3c0.1,0.1,0.3,0.4,0.3,0.7v21.5c0,0.3-0.1,0.4-0.3,0.5
			c-0.1,0.1-0.4,0.3-0.5,0.3C24.1,32.4,20.4,32.4,20.4,32.4z"/>
		<path class="st1" d="M29.1,13c-0.3,0-0.4-0.1-0.5-0.3c-0.1-0.1-0.3-0.4-0.3-0.7V9.2c0-0.3,0.1-0.4,0.3-0.5
			c0.1-0.1,0.4-0.3,0.5-0.3h3.6c0.3,0,0.4,0.1,0.5,0.3s0.3,0.4,0.3,0.5v3c0,0.3-0.1,0.4-0.3,0.7c-0.1,0.1-0.4,0.3-0.5,0.3h-3.6V13z
			 M29.2,32.4c-0.3,0-0.4-0.1-0.5-0.3c-0.1-0.1-0.3-0.4-0.3-0.5V16.2c0-0.3,0.1-0.4,0.3-0.7c0.1-0.1,0.4-0.3,0.5-0.3h3.6
			c0.3,0,0.4,0.1,0.5,0.3c0.1,0.1,0.3,0.4,0.3,0.7v15.4c0,0.3-0.1,0.4-0.3,0.5s-0.4,0.3-0.5,0.3C32.8,32.4,29.2,32.4,29.2,32.4z"/>
		<path class="st1" d="M38.2,32.4c-0.3,0-0.4-0.1-0.5-0.3c-0.1-0.1-0.3-0.3-0.3-0.5V10.3c0-0.3,0.1-0.4,0.3-0.7
			c0.1-0.1,0.4-0.3,0.5-0.3h8.6c1.8,0,3.1,0.3,4.4,0.8c1.3,0.5,2.3,1.4,3,2.5c0.8,1.2,1,2.5,1,4.2s-0.4,3-1,4.2c-0.8,1-1.6,2-3,2.5
			c-1.3,0.5-2.8,0.8-4.4,0.8h-3.6v7.2c0,0.3-0.1,0.4-0.3,0.5c-0.1,0.1-0.4,0.3-0.6,0.3h-4.1V32.4z M43.1,20h3.6
			c0.9,0,1.6-0.3,2.1-0.8s0.8-1.2,0.8-2.2c0-0.8-0.3-1.6-0.6-2.1c-0.5-0.5-1.1-0.9-2.3-0.9h-3.6V20z"/>
		<path class="st1" d="M65.2,32.8c-1.8,0-3.1-0.3-4.4-0.9c-1.1-0.7-2.1-1.4-2.8-2.5c-0.6-1-1-2.3-1-3.9c0-0.4,0-0.9,0-1.4s0-1,0-1.4
			c0.1-1.6,0.5-2.9,1.1-3.9c0.6-1,1.6-2,2.8-2.5c1.1-0.7,2.6-0.9,4.3-0.9c1.6,0,3.1,0.3,4.3,0.9c1.1,0.7,2.1,1.4,2.8,2.5
			c0.6,1,1,2.3,1.1,3.9c0,0.4,0,0.9,0,1.4s0,1,0,1.4c-0.1,1.6-0.4,2.9-1,3.9c-0.6,1-1.5,2-2.8,2.5C68.5,32.5,67,32.8,65.2,32.8z
			 M65.2,28.8c0.9,0,1.6-0.3,2-0.9c0.4-0.7,0.6-1.4,0.8-2.6c0-0.4,0-0.8,0-1.3c0-0.5,0-1,0-1.3c0-1.2-0.3-2.1-0.8-2.6
			c-0.4-0.7-1.1-0.9-2-0.9s-1.5,0.3-2,0.9c-0.5,0.7-0.6,1.4-0.8,2.6c0,0.4,0,0.8,0,1.3c0,0.5,0,1,0,1.3c0,1.2,0.3,2.1,0.8,2.6
			C63.7,28.5,64.4,28.8,65.2,28.8z"/>
		<path class="st1" d="M77.2,32.4c-0.3,0-0.4-0.1-0.5-0.3c-0.1-0.1-0.3-0.4-0.3-0.5V16.2c0-0.3,0.1-0.4,0.3-0.7
			c0.1-0.1,0.4-0.3,0.5-0.3h3.5c0.3,0,0.4,0.1,0.6,0.3c0.1,0.1,0.3,0.4,0.3,0.7v1.3c0.5-0.7,1.3-1.3,2-1.7c0.9-0.5,1.9-0.7,3-0.7
			s2.3,0.3,3.1,0.9c0.9,0.5,1.6,1.4,2.1,2.5c0.5,1,0.8,2.5,0.8,4v9.1c0,0.3-0.1,0.4-0.3,0.5s-0.4,0.3-0.5,0.3H88
			c-0.3,0-0.4-0.1-0.5-0.3s-0.3-0.4-0.3-0.5v-8.9c0-1-0.3-1.8-0.8-2.3c-0.5-0.5-1.1-0.8-2-0.8c-0.9,0-1.5,0.3-2,0.8
			c-0.5,0.5-0.8,1.3-0.8,2.3v8.9c0,0.3-0.1,0.4-0.3,0.5c-0.1,0.1-0.4,0.3-0.5,0.3h-3.8V32.4z"/>
		<path class="st1" d="M104,39.6c-1.6,0-2.9-0.3-3.9-0.7c-1-0.4-1.9-0.9-2.5-1.6c-0.6-0.7-1-1.2-1.3-1.8s-0.4-1-0.4-1.4
			c0-0.3,0-0.4,0.3-0.7c0.1-0.1,0.4-0.3,0.6-0.3h3.9c0.3,0,0.4,0,0.5,0.1s0.3,0.3,0.3,0.5c0.1,0.3,0.3,0.5,0.4,0.8
			c0.1,0.3,0.4,0.5,0.8,0.7c0.4,0.1,0.8,0.3,1.3,0.3c0.6,0,1.1-0.1,1.5-0.3c0.4-0.3,0.8-0.5,0.9-1c0.3-0.5,0.3-1,0.3-1.8v-2.2
			c-0.5,0.5-1.1,1-1.8,1.3c-0.8,0.4-1.6,0.5-2.6,0.5c-1,0-2-0.1-2.8-0.5c-0.8-0.4-1.5-0.8-2-1.4c-0.5-0.7-1-1.4-1.3-2.3
			c-0.3-0.9-0.5-2-0.5-3.3c0-0.5,0-1.2,0-1.7c0-1.2,0.3-2.2,0.5-3.1c0.3-0.9,0.8-1.7,1.3-2.5c0.5-0.7,1.3-1.2,2-1.6
			c0.8-0.4,1.8-0.5,2.8-0.5c1.1,0,2,0.3,2.9,0.7c0.8,0.4,1.4,1,2,1.7v-1.2c0-0.3,0.1-0.4,0.3-0.5c0.1-0.1,0.4-0.3,0.5-0.3h3.5
			c0.3,0,0.4,0.1,0.6,0.3c0.3,0.1,0.3,0.4,0.3,0.5v15.7c0,1.7-0.3,3-0.9,4.2c-0.6,1.2-1.5,2-2.8,2.6C107.2,39.3,105.6,39.6,104,39.6
			z M103.8,27.8c0.6,0,1.1-0.1,1.6-0.5c0.5-0.4,0.8-0.7,0.9-1.2c0.3-0.5,0.3-1,0.4-1.6c0-0.3,0-0.5,0-1c0-0.4,0-0.8,0-1
			c0-0.5-0.1-1-0.4-1.6c-0.3-0.5-0.5-0.9-0.9-1.2c-0.4-0.3-1-0.4-1.6-0.4c-0.6,0-1.3,0.1-1.6,0.5c-0.4,0.3-0.6,0.8-0.9,1.3
			c-0.1,0.5-0.3,1-0.4,1.7c0,0.5,0,0.9,0,1.4c0,0.7,0.1,1.2,0.4,1.7c0.1,0.5,0.5,0.9,0.9,1.3C102.5,27.7,103.1,27.8,103.8,27.8z"/>
		<path class="st1" d="M116.4,32.4c-0.3,0-0.4-0.1-0.5-0.3c-0.1-0.1-0.3-0.4-0.3-0.5V16.2c0-0.3,0.1-0.4,0.3-0.5
			c0.1-0.1,0.4-0.3,0.5-0.3h3.5c0.3,0,0.4,0.1,0.6,0.3s0.3,0.4,0.3,0.5v1.3c0.5-0.7,1.1-1.2,2-1.6c0.8-0.4,1.6-0.5,2.6-0.5h1.4
			c0.3,0,0.4,0.1,0.5,0.3c0.1,0.1,0.3,0.4,0.3,0.7v3.4c0,0.3-0.1,0.4-0.3,0.5c-0.1,0.1-0.4,0.3-0.5,0.3h-3c-0.9,0-1.5,0.3-2,0.8
			c-0.5,0.5-0.8,1.2-0.8,2.1v8.4c0,0.3-0.1,0.4-0.3,0.5c-0.1,0.1-0.4,0.3-0.6,0.3h-3.8V32.4z"/>
	</g>
</g>
</svg>
